# xmcd CD database file
#
# Track frame offsets:
#	150
#	11137
#	24240
#	40752
#	54340
#	68140
#	81842
#	94167
#	110137
#	123942
#	140940
#	152167
#
# Disc length: 2151 seconds
#
# Revision: 3
# Processed by: cddbd v1.5.2PL0 Copyright (c) Steve Scherf et al.
# Submitted via: CDex 1.51
#
DISCID=9f08650c
DTITLE=Patty Pravo - I Grandi Successi Originali  [CD 1-2]
DYEAR=2000
DGENRE=Pop
TTITLE0=Qui e là
TTITLE1=Se perdo te
TTITLE2=Io per lui
TTITLE3=La bambola
TTITLE4=Ragazzo triste
TTITLE5=Se c'è l'amore
TTITLE6=Sentimento
TTITLE7=Tripoli' 69
TTITLE8=Ballerina Ballerina
TTITLE9=Concerto per Patty
TTITLE10=Il paradiso
TTITLE11=Un'ora fà
EXTD=YEAR: 2000
EXTT0=
EXTT1=
EXTT2=
EXTT3=
EXTT4=
EXTT5=
EXTT6=
EXTT7=
EXTT8=
EXTT9=
EXTT10=
EXTT11=
PLAYORDER=
